<?xml version="1.0" standalone="no"?>
<!DOCTYPE svg PUBLIC "-//W3C//DTD SVG 20010904//EN"
 "http://www.w3.org/TR/2001/REC-SVG-20010904/DTD/svg10.dtd">
<svg version="1.0" xmlns="http://www.w3.org/2000/svg"
 width="1024.000000pt" height="1024.000000pt" viewBox="0 0 1024.000000 1024.000000"
 preserveAspectRatio="xMidYMid meet">
<metadata>
Created by potrace 1.14, written by Peter Selinger 2001-2017
</metadata>
<g transform="translate(0.000000,1024.000000) scale(0.100000,-0.100000)"
fill="#000000" stroke="none">
<path d="M6316 9313 c-2 -2 -12 -5 -22 -7 -51 -11 -123 -54 -171 -102 -54 -54
-108 -150 -117 -209 -2 -16 -5 -805 -5 -1753 l-1 -1722 -651 2 -650 3 -28 71
c-82 210 -244 430 -409 556 -31 24 -59 45 -62 48 -16 16 -158 100 -180 105 -3
1 -27 12 -55 24 -68 30 -87 38 -107 45 -17 5 -18 48 -19 708 0 387 -2 712 -4
723 -19 101 -76 193 -158 255 -157 119 -394 98 -529 -47 -38 -41 -83 -121 -96
-173 -8 -32 -11 -254 -12 -749 0 -387 -2 -707 -5 -711 -3 -4 -17 -11 -32 -14
-16 -4 -82 -34 -148 -66 -390 -192 -660 -565 -723 -995 -9 -62 -8 -315 1 -370
4 -22 9 -56 12 -75 13 -81 70 -239 121 -339 150 -292 415 -530 709 -636 28
-10 53 -21 57 -25 5 -3 8 -584 8 -1292 0 -1423 -4 -1337 65 -1444 105 -164
326 -229 504 -147 56 26 131 92 167 148 67 106 64 22 64 1443 0 708 3 1289 8
1292 4 3 45 21 92 40 295 117 555 363 689 652 21 45 46 102 56 126 l18 42 649
0 648 0 0 -1125 c0 -619 0 -1126 0 -1127 0 -2 7 -28 16 -58 85 -288 441 -383
661 -177 45 43 109 158 117 212 2 17 5 535 5 1153 l1 1122 260 0 260 0 1 -322
c2 -360 1 -349 19 -403 33 -101 106 -182 208 -232 66 -33 82 -37 155 -37 45
-1 96 2 113 5 105 22 213 113 266 224 l33 70 2 581 c3 518 1 586 -14 630 -38
113 -121 205 -230 253 l-58 26 -505 3 c-277 2 -506 4 -507 6 -2 1 -3 781 -3
1733 0 1895 4 1760 -57 1869 -26 45 -108 124 -158 150 -52 27 -122 42 -193 41
-40 0 -73 -2 -76 -4z m-2682 -3417 c317 -88 538 -327 595 -646 20 -114 -5
-362 -41 -407 -6 -7 -7 -13 -3 -13 4 0 -12 -35 -35 -77 -84 -156 -192 -263
-346 -344 -43 -23 -81 -42 -84 -42 -3 0 -9 -1 -15 -3 -130 -41 -286 -53 -406
-30 -151 29 -299 103 -400 198 -64 61 -129 140 -129 157 0 6 -4 11 -8 11 -10
0 -65 118 -86 185 -47 152 -42 380 11 505 3 8 7 21 9 28 1 7 24 51 50 97 50
86 125 173 205 238 46 37 199 122 199 111 0 -4 6 -2 13 3 11 9 107 36 162 46
50 9 255 -2 309 -17z"/>
<path d="M4837 8714 c-2 -3 -14 -7 -27 -9 -66 -13 -155 -76 -211 -150 -82
-109 -79 -60 -79 -1068 0 -570 4 -913 10 -947 27 -142 137 -262 278 -303 49
-15 166 -17 220 -4 98 25 198 110 249 215 l38 76 2 931 c3 1032 7 972 -62
1080 -42 66 -95 111 -175 149 -55 25 -78 31 -152 32 -47 1 -88 0 -91 -2z"/>
<path d="M4820 4007 c-121 -35 -202 -103 -257 -215 l-38 -76 -2 -931 c-3 -844
-1 -936 14 -981 84 -252 377 -361 596 -221 68 44 113 96 151 177 l31 65 2 931
c3 904 2 933 -17 988 -21 63 -74 140 -122 181 -34 28 -118 74 -152 82 -51 12
-164 12 -206 0z"/>
</g>
</svg>
